<?xml version="1.0" standalone="no"?> 
<!DOCTYPE svg PUBLIC "-//W3C//DTD SVG 1.1//EN" "http://www.w3.org/Graphics/SVG/1.1/DTD/svg11.dtd" >
<svg xmlns="http://www.w3.org/2000/svg">
<defs>
  <font id="icons" horiz-adv-x="24">
    <font-face font-family="icons"
      units-per-em="1000" ascent="1000"
      descent="0" />
    <missing-glyph horiz-adv-x="0" />
    <glyph glyph-name="accessories"
      unicode="&#xE001;"
      horiz-adv-x="1000" d=" M729.7083333333334 18.3333333333335H0V372.2916666666668L32.625 370.8333333333334C76.9583333333333 368.875 108.9583333333333 354.0416666666668 134.625 342.0833333333334C155.875 332.25 172.6666666666667 324.4583333333335 192.5416666666666 324.4583333333335C225.875 324.4583333333335 253.0416666666667 351.6250000000001 253.0416666666667 385.0000000000001S225.875 445.5416666666668 192.5 445.5416666666668C174.0833333333333 445.5416666666668 157.625 437.7083333333334 136.7916666666666 427.7083333333334C110.5416666666666 415.2083333333334 77.9583333333333 399.5833333333334 32.625 397.5416666666668L0 396.1666666666667V748.0833333333334H280C276.0416666666667 759.9583333333334 270.8333333333333 771 265.5 782.375C254.3333333333333 806.2916666666666 242.7083333333333 831 242.7083333333333 863.2083333333333C242.7083333333333 928.4166666666666 295.8333333333333 981.5833333333334 361.125 981.5833333333334S479.5833333333333 928.4166666666666 479.5833333333333 863.0833333333334C479.5833333333333 831.9166666666667 467.7499999999999 807.4166666666667 456.2499999999999 783.6666666666667C450.5833333333333 771.7916666666666 445 760.3333333333333 440.9583333333333 747.9583333333334H729.7083333333333V469.2083333333334C747.9583333333331 474.2083333333333 763.9583333333331 481.8333333333334 780.5416666666665 489.7916666666666C807.2083333333331 502.5416666666666 834.5833333333331 515.7083333333333 869.2916666666664 515.7083333333333C941.3749999999998 515.7083333333333 1000.0416666666666 456.9583333333333 1000.0416666666666 384.875C1000.0416666666666 312.8749999999999 941.4166666666666 254.1249999999999 869.3333333333331 254.0416666666667C833.4999999999999 254.0416666666667 805.7916666666665 266.9583333333333 778.9166666666664 279.4583333333333C762.8749999999997 286.9583333333333 747.3749999999997 294.2083333333333 729.7499999999998 298.9583333333333V18.2499999999999zM62.5 80.8333333333335H667.2083333333333V368.5833333333334L700.1249999999999 366.7916666666668C745.1249999999998 364.2916666666668 777.1249999999998 349.4166666666668 805.2916666666665 336.25C828.7499999999998 325.3333333333334 847.2499999999999 316.6666666666668 869.2083333333331 316.6666666666668C906.8749999999998 316.75 937.5416666666666 347.3750000000001 937.5416666666666 385.0000000000001S906.9166666666666 453.3333333333335 869.2083333333331 453.3333333333335C848.7916666666665 453.3333333333335 830.6249999999999 444.5833333333335 807.6249999999998 433.5416666666669C780.2499999999998 420.4166666666669 746.1249999999998 404.0416666666669 700.2499999999999 401.4583333333335L667.2499999999998 399.6250000000001V685.625H369.7499999999998L371.9583333333332 718.9583333333334C374.4583333333332 757.8333333333334 388.6249999999999 787.2916666666666 400.0833333333332 810.9583333333334C409.6666666666665 830.75 417.1666666666665 846.375 417.1666666666665 863.25C417.1666666666665 894.0833333333334 392.0416666666665 919.2083333333334 361.2083333333332 919.2083333333334S305.2916666666665 894.0833333333334 305.2916666666665 863.2083333333333C305.2916666666665 844.9583333333333 312.7916666666665 829.0416666666666 322.1666666666665 808.9583333333333C333.5833333333332 784.625 346.4999999999999 757.0416666666666 348.9999999999999 718.875L351.2083333333332 685.5416666666667H62.5V465.125C79.5833333333333 469.7083333333334 94.4583333333333 476.7916666666666 109.875 484.1666666666667C134.4583333333333 495.8333333333334 159.875 508.0416666666667 192.4583333333333 508.0416666666667C260.25 508.0416666666667 315.4583333333333 452.8333333333335 315.4583333333333 385.0000000000001S260.25 261.9583333333335 192.4166666666667 261.9583333333335C158.75 261.9583333333335 133.0416666666667 273.8750000000003 108.25 285.4166666666668C93.25 292.3333333333335 78.9166666666667 299.0000000000001 62.4166666666667 303.4166666666668V80.9166666666667z" />
    <glyph glyph-name="arrow-down"
      unicode="&#xE002;"
      horiz-adv-x="1000" d=" M500 345.5416666666667L235.25 610.25L264.7083333333333 639.7083333333335L500 404.4583333333334L735.25 639.7083333333335L764.7083333333334 610.25L500 345.5416666666667z" />
    <glyph glyph-name="buy"
      unicode="&#xE003;"
      horiz-adv-x="1000" d=" M921.7499999999998 301.2500000000001H272.9166666666667L107.25 897.4166666666666H0V963.625H157.625L323.2083333333333 367.5H866.4583333333334L920.625 665.5833333333334H397.4166666666667V731.8333333333334H1000L921.7499999999998 301.2500000000001zM364.25 36.3750000000001C309.4583333333333 36.3750000000001 264.9166666666666 80.9583333333335 264.9166666666666 135.7083333333335S309.5 235.0416666666668 364.25 235.0416666666668S463.5833333333333 190.4583333333335 463.5833333333333 135.7500000000001S419 36.4166666666669 364.25 36.4166666666669zM364.25 168.8750000000001C346 168.8750000000001 331.125 154.0000000000001 331.125 135.7083333333335C331.125 117.3750000000001 346 102.5833333333334 364.25 102.5833333333334C382.5 102.5833333333334 397.375 117.4166666666668 397.375 135.7083333333335C397.375 154.0416666666669 382.5 168.8333333333335 364.25 168.8333333333335zM794.7499999999999 36.3750000000001C739.9583333333331 36.3750000000001 695.4166666666665 80.9583333333335 695.4166666666665 135.7083333333335S739.9999999999999 235.0416666666668 794.7499999999999 235.0416666666668C849.5416666666666 235.0416666666668 894.0833333333333 190.4583333333335 894.0833333333333 135.7500000000001S849.4999999999999 36.4166666666669 794.7499999999999 36.4166666666669zM794.7499999999999 168.8750000000001C776.4166666666665 168.8750000000001 761.6249999999998 154.0000000000001 761.6249999999998 135.7083333333335C761.6249999999998 117.3750000000001 776.4166666666665 102.5833333333334 794.7083333333331 102.5833333333334C813.0416666666665 102.5833333333334 827.8333333333333 117.4166666666668 827.8333333333333 135.7083333333335C827.8333333333333 154.0416666666669 812.9583333333333 168.8333333333335 794.6666666666666 168.8333333333335zM463.6249999999999 599.2916666666667H529.8749999999999V433.75H463.6249999999999V599.3333333333334zM662.2916666666666 599.2916666666667H728.5416666666666V433.75H662.2916666666666V599.3333333333334z" />
    <glyph glyph-name="calculate-material"
      unicode="&#xE004;"
      horiz-adv-x="1000" d=" M0 1000V0H1000V1000H0zM937.5 62.5H62.5V937.5H937.5V62.5zM281.25 656.25H187.5V718.75H281.25V812.5H343.75V718.75H437.5V656.25H343.75V562.5H281.25V656.25zM812.5 656.25H562.5V718.75H812.5V656.25zM625 343.75H562.5V406.25H625V343.75zM718.75 281.25H781.25V218.75H718.75V281.25zM759.1666666666666 428.3333333333334L803.3333333333331 384.1666666666667L615.8333333333331 196.6666666666666L571.6666666666665 240.8333333333333L759.1666666666666 428.3333333333333zM428.3333333333332 384.1666666666667L356.6666666666667 312.5L428.3333333333334 240.8333333333334L384.1666666666667 196.6666666666669L312.5 268.3333333333335L240.8333333333334 196.6666666666669L196.6666666666667 240.8333333333334L268.3333333333333 312.5L196.6666666666667 384.1666666666668L240.8333333333334 428.3333333333334L312.5 356.6666666666668L384.1666666666667 428.3333333333334L428.3333333333334 384.1666666666668z" />
    <glyph glyph-name="characteristics"
      unicode="&#xE005;"
      horiz-adv-x="1000" d=" M1000 0H0V62.5H1000V0zM917.4166666666666 209.4166666666668H854.9166666666666V774.8333333333334H917.4166666666666V209.4166666666668zM667.5416666666666 209.4166666666668H605.0416666666666V1000H667.5416666666666V209.4166666666668zM412.5416666666667 209.4166666666668H350V649.9166666666667H412.5V209.4166666666669zM157.5416666666667 209.4166666666668H95.0416666666666V774.8333333333334H157.5416666666667V209.4166666666668z" />
    <glyph glyph-name="checkmark"
      unicode="&#xE006;"
      horiz-adv-x="1000" d=" M424.1666666666667 194.1666666666668L137.0833333333333 483.625L196.25 542.2916666666666L419.1666666666666 317.5833333333334L801.4999999999999 770.9166666666667L865.2499999999999 717.1666666666667L424.1249999999999 194.25z" />
    <glyph glyph-name="doc"
      unicode="&#xE007;"
      horiz-adv-x="1000" d=" M916.6666666666666 750H83.3333333333333C37.2916666666667 750 0 712.7083333333334 0 666.6666666666667V333.3333333333334C0 287.2916666666668 37.2916666666667 250 83.3333333333333 250H916.6666666666666C962.7083333333331 250 1000 287.2916666666668 1000 333.3333333333334V666.6666666666667C1000 712.7083333333334 962.7083333333331 750 916.6666666666666 750zM958.3333333333331 333.3333333333334C958.3333333333331 310.4166666666667 939.5833333333331 291.6666666666668 916.6666666666666 291.6666666666668H83.3333333333333C60.4166666666667 291.6666666666668 41.6666666666667 310.4166666666667 41.6666666666667 333.3333333333334V666.6666666666667C41.6666666666667 689.5833333333334 60.4166666666667 708.3333333333334 83.3333333333333 708.3333333333334H916.6666666666666C939.5833333333331 708.3333333333334 958.3333333333331 689.5833333333334 958.3333333333331 666.6666666666667V333.3333333333334z M246.8333333333334 603.3333333333334H172.0833333333333V396.6666666666667H249.1666666666667C306.0416666666667 396.6666666666667 365 427.9166666666667 365 500.6250000000001C365 578.7916666666667 305.4166666666667 603.3333333333334 246.8333333333333 603.3333333333334zM244.4583333333333 439.8333333333334H220.8333333333333V560.6666666666667H245.6666666666667C280.0833333333333 560.6666666666667 313.0833333333333 547.0000000000001 313.0833333333333 500.5833333333334C313.0833333333333 454.4583333333335 280.0833333333333 439.8333333333334 244.4583333333333 439.8333333333334zM500.5833333333333 608.875C436.0833333333333 608.875 388.25 567.125 388.25 500.875C388.25 435.5416666666667 436.0833333333333 391.2083333333334 500.5833333333333 391.2083333333334C565.3749999999999 391.2083333333334 613.2083333333333 435.5416666666667 613.2083333333333 500.9166666666666C613.2083333333333 567.1666666666666 565.2916666666665 608.9583333333333 500.5833333333333 608.9583333333333zM500.5833333333333 436.6666666666668C465.8749999999999 436.6666666666668 441.625 463.5 441.625 500.8333333333334C441.625 537.0833333333333 465.5 563.9166666666666 500.5416666666666 563.9166666666666S559.7916666666666 537.0833333333333 559.7916666666666 500.875C559.7916666666666 463.5416666666666 535.2916666666667 436.7083333333333 500.5416666666666 436.7083333333333zM749.3333333333334 436.9583333333334C714.9166666666666 436.9583333333334 690.7083333333334 462.6666666666666 690.7083333333334 500.2916666666667C690.7083333333334 536.7916666666666 715.5 563.625 750.2916666666666 563.625C766 563.625 782.625 557.5416666666666 791.9583333333334 544.6666666666667L825.8333333333333 578.5416666666667C808.625 598.4166666666667 777.4166666666666 608.9583333333334 748.5416666666666 608.9583333333334C685.4999999999999 608.9583333333334 636.4583333333333 566.5833333333334 636.4583333333333 500.3750000000001C636.4583333333333 435.5416666666667 684.0833333333333 391.2083333333334 747.7083333333333 391.2083333333334C782.4166666666665 391.2083333333334 809.7916666666665 404.25 827.9583333333333 425.2916666666667L793.25 458C784.4166666666666 445.7083333333334 768.9583333333334 436.9166666666667 749.3749999999999 436.9166666666667z" />
    <glyph glyph-name="docs-group"
      unicode="&#xE008;"
      horiz-adv-x="1000" d=" M193.125 286.5416666666667H562.375V224.0416666666666H193.125V286.5416666666667zM193.125 382.0416666666667H562.375V444.5416666666667H193.125V382.0416666666667zM277.0833333333333 1000V937.5H937.5V239.1666666666667H1000V1000H277.0833333333333zM193.1666666666667 534.4583333333334H562.4166666666666V596.9583333333334H193.125V534.4583333333334zM0 792.0833333333334H754.1666666666666V0H0V792.0833333333334zM62.5 62.5H691.6666666666667V729.5833333333333H62.5V62.5z" />
    <glyph glyph-name="docs"
      unicode="&#xE009;"
      horiz-adv-x="1000" d=" M875 0H125V875H250.5V812.5H187.5V62.5H812.5V812.5H747.6666666666666V875H875V0zM686.4166666666666 749.5833333333334H313.5833333333333V937.5H411.5C424.4166666666667 973.875 459.1666666666666 1000 499.9166666666666 1000S575.4166666666666 973.875 588.3333333333333 937.5H686.4166666666666V749.5833333333334zM376.0833333333333 812.0833333333334H623.9166666666666V875H531.1666666666666V906.25C531.1666666666666 923.4583333333334 517.125 937.5 499.9166666666667 937.5S468.6666666666667 923.4583333333334 468.6666666666667 906.25V875H376.0833333333333V812.0833333333334zM312.25 500H687.25V437.5H312.25V500zM312.25 375H687.25V312.5H312.25V375zM312.25 250H687.25V187.5H312.25V250zM312.25 625H468.4999999999999V562.5H312.25V625z" />
    <glyph glyph-name="dwg"
      unicode="&#xE00A;"
      horiz-adv-x="1000" d=" M916.6666666666666 750H83.3333333333333C37.2916666666667 750 0 712.7083333333334 0 666.6666666666667V333.3333333333334C0 287.2916666666668 37.2916666666667 250 83.3333333333333 250H916.6666666666666C962.7083333333331 250 1000 287.2916666666668 1000 333.3333333333334V666.6666666666667C1000 712.7083333333334 962.7083333333331 750 916.6666666666666 750zM958.3333333333331 333.3333333333334C958.3333333333331 310.4166666666667 939.5833333333331 291.6666666666668 916.6666666666666 291.6666666666668H83.3333333333333C60.4166666666667 291.6666666666668 41.6666666666667 310.4166666666667 41.6666666666667 333.3333333333334V666.6666666666667C41.6666666666667 689.5833333333334 60.4166666666667 708.3333333333334 83.3333333333333 708.3333333333334H916.6666666666666C939.5833333333331 708.3333333333334 958.3333333333331 689.5833333333334 958.3333333333331 666.6666666666667V333.3333333333334z M220.5833333333333 603.1666666666667H145.8333333333333V396.5000000000001H222.9166666666666C279.7916666666667 396.5000000000001 338.75 427.7500000000001 338.75 500.4583333333335C338.75 578.6666666666669 279.1666666666667 603.2083333333335 220.5833333333333 603.2083333333335zM218.2083333333333 439.7083333333334H194.5833333333333V560.5416666666667H219.4166666666667C253.8333333333333 560.5416666666667 286.8333333333333 546.8750000000001 286.8333333333333 500.4583333333334C286.8333333333333 454.3750000000001 253.8333333333334 439.75 218.2083333333333 439.75zM564.1666666666666 465.7083333333334H563.3333333333333L526.2499999999999 603.2083333333334H474.3333333333333L437.5416666666666 465.7083333333334H436.7083333333333L404.0416666666665 603.2083333333334H350.2916666666665L409.0416666666665 396.5416666666667H458.6249999999998L499.4583333333331 536.3333333333334H500.2916666666665L541.1249999999998 396.5416666666667H590.4999999999999L649.4999999999999 603.2083333333334H597.5zM768.8749999999999 478.25H808.2916666666666V440.5833333333334C799.5416666666666 436.8333333333334 788.7083333333334 435.0416666666667 777.0416666666666 435.0416666666667C736.4166666666666 435.0416666666667 713.9583333333334 462.25 713.9583333333334 500.1666666666667C713.9583333333334 537.25 739.625 564.6666666666667 774.6666666666667 564.6666666666667C794.7916666666667 564.6666666666667 811.4583333333334 556.5416666666667 821.0416666666667 545.5L852.5833333333334 581.3333333333333C835.3750000000001 598 805.2916666666667 608.75 772.9166666666669 608.75C709.9166666666667 608.75 660.9166666666667 566.4166666666665 660.9166666666667 500.2083333333333C660.9166666666667 435.1249999999999 708.5000000000001 391.3333333333333 774.4583333333334 391.3333333333333C806.2500000000001 391.3333333333333 834.0416666666667 398.625 854.125 409.1249999999999V518.5833333333333H768.8333333333334V478.3333333333333z" />
    <glyph glyph-name="email"
      unicode="&#xE00B;"
      horiz-adv-x="1000" d=" M989.5833333333331 10.4166666666667H10.4166666666667V775H72.9166666666667V72.9166666666667H927.0833333333331V775H989.5833333333331V10.4166666666667zM343.4583333333333 483.9166666666667L289.8333333333333 516L106.5 210.5L160.1666666666667 178.4166666666668L343.5 483.9166666666667zM880.6249999999999 563.7083333333334L852.7083333333331 619.5416666666667L500 443.3333333333334L147.2916666666667 619.5833333333333L119.375 563.75L500 373.3333333333334L880.6249999999999 563.75zM893.4583333333331 210.5L710.1249999999999 516.0416666666667L656.5416666666666 483.9583333333334L839.875 178.375L893.4583333333334 210.4583333333333zM867.3333333333333 989.5833333333334H132.6666666666667V652.7916666666667H195.1666666666667V927.0833333333334H804.875V652.7916666666667H867.375V989.5833333333334zM469.4166666666666 867.375H255.625V804.875H469.5V867.375zM683.3333333333333 745.125H255.5833333333334V682.625H683.3333333333333V745.125zM683.3333333333333 591.6666666666667" />
    <glyph glyph-name="fb"
      unicode="&#xE00C;"
      horiz-adv-x="1000" d=" M440.6666666666667 831.75C397.8333333333333 788.2083333333334 396.5 702.75 392.9166666666667 616.5H324.1666666666667V498.5H393.75C393.6666666666666 375.4583333333334 393.75 240.5833333333333 393.75 125H557.1666666666666V500H651.3333333333333C658.7083333333333 539.5833333333333 665.8333333333333 570.6666666666667 675.8333333333333 616.4583333333334H557.8333333333333C558.9166666666665 655.625 551.6666666666665 710.2083333333334 563.8749999999999 728.8333333333334C586.1666666666665 762.9166666666666 675.1249999999998 754.0416666666666 675.1249999999998 754.0416666666666V874.75C534.7083333333331 874.75 488.8749999999998 880.6666666666666 440.6666666666665 831.75z" />
    <glyph glyph-name="fire-certificates"
      unicode="&#xE00D;"
      horiz-adv-x="1000" d=" M584.9166666666666 738.75H206.75V801.25H584.9166666666666V738.75zM72 898.8333333333334H741.6666666666666V614.5833333333334H804.1666666666666V961.25H9.5V126.4166666666666H450.4166666666667V188.9166666666666H72.0833333333333V898.8333333333334zM990.5 420.2916666666668L988.5833333333334 375.5C983.1666666666669 248.0000000000001 976.3333333333334 89.25 784.0000000000001 44.6666666666667C766.5 40.6666666666666 749.1250000000001 38.7083333333334 731.9166666666667 38.7083333333334C627.3333333333334 38.7083333333334 532.3333333333335 110.7083333333334 507.7500000000001 216.875C458.1666666666668 431.0416666666667 654.5416666666667 495.625 738.4166666666666 523.25L778.625 536.4166666666666L779.5416666666666 486.75L966.4999999999998 618.8333333333333L925.1249999999998 399.25L990.4583333333331 420.2083333333334zM923.8333333333331 333.2083333333334L844.3333333333333 307.7083333333335L876.5833333333333 478.8333333333334L779.6666666666666 410.3333333333334C775.4999999999999 405.8333333333334 771.6249999999999 403.1250000000001 767.5833333333334 400.6666666666668L720.9166666666666 371.6666666666668L717.8333333333333 449.6666666666668C606.1666666666665 406.7500000000001 541.3333333333331 349.0416666666669 568.6666666666665 231.0416666666668C589.4999999999999 140.9166666666668 680.0416666666665 84.6666666666669 769.9166666666665 105.5416666666667C891.7916666666665 133.7916666666669 915.5833333333331 210.875 923.7916666666666 333.2083333333334zM206.6666666666667 604.3333333333333H584.8333333333334V666.8333333333333H206.75V604.3333333333333z" />
    <glyph glyph-name="in"
      unicode="&#xE00E;"
      horiz-adv-x="1000" d=" M708 184.3750000000001V444.3750000000001C708 497.6250000000001 692.5833333333333 551.0416666666667 629.7916666666666 551.0416666666667C567 551.0416666666667 540.7916666666666 497.6250000000001 540.7916666666666 443.0416666666668V184.3750000000001H373.3333333333334V660.4166666666667H540.75V596.3333333333333C584.8333333333334 652.3333333333333 623.125 675.4166666666666 692.5416666666667 675.4166666666666C762.1250000000001 675.4166666666666 875.0416666666666 643 875.0416666666666 455V184.3749999999999H708.0416666666667zM218.5416666666667 730.9583333333334C166.875 730.9583333333334 125 768.5416666666667 125 814.9166666666666C125 861.3333333333334 166.875 898.9583333333334 218.5416666666667 898.9583333333334C270.2083333333333 898.9583333333334 312.0416666666667 861.3333333333334 312.0416666666667 814.9166666666666C312.0416666666667 768.5416666666667 270.125 730.9583333333333 218.5 730.9583333333333zM302.0833333333333 184.3750000000001H134.3333333333334V660.4166666666667H302.0833333333333V184.3749999999999z" />
    <glyph glyph-name="info"
      unicode="&#xE00F;"
      horiz-adv-x="1000" d=" M592.375 685.625C592.375 736.5416666666667 550.9583333333334 778 500 778S407.625 736.5416666666667 407.625 685.625S449.0416666666667 593.25 500 593.25S592.375 634.7083333333333 592.375 685.625zM500 655.75C483.4999999999999 655.75 470.1249999999999 669.1666666666667 470.1249999999999 685.625S483.4583333333333 715.5 500 715.5S529.875 702.0833333333333 529.875 685.625S516.5416666666666 655.75 500 655.75zM468.75 532.8333333333334H531.25V227.2916666666667H468.75V532.8333333333333zM989.5833333333331 502.2916666666667C989.5833333333331 232.2916666666667 770 12.7083333333334 500 12.7083333333334S10.4166666666667 232.2916666666667 10.4166666666667 502.2916666666667C10.4166666666667 746.875 192.9166666666667 955.4166666666666 434.8333333333333 987.2916666666666L442.9583333333333 925.3333333333334C232.0833333333334 897.5 72.9166666666667 715.625 72.9166666666667 502.2916666666667C72.9166666666667 266.7916666666667 264.5 75.2083333333334 500 75.2083333333334S927.0833333333331 266.7916666666667 927.0833333333331 502.2916666666667C927.0833333333331 715.625 767.9999999999999 897.5 557.0833333333333 925.3333333333334L565.1666666666666 987.2916666666666C807.125 955.3333333333334 989.5833333333331 746.875 989.5833333333331 502.2916666666667z" />
    <glyph glyph-name="knowledge"
      unicode="&#xE010;"
      horiz-adv-x="1000" d=" M625 156.25H968.75V93.75H625C573.3333333333333 93.75 531.25 51.6666666666666 531.25 0H468.75C468.75 51.6666666666666 426.6666666666667 93.75 375 93.75H31.25V156.25H375C426.25 156.25 471.4999999999999 131.0833333333334 500 92.7916666666667C528.4999999999999 131.1250000000001 573.75 156.25 625 156.25zM625 1000C573.75 1000 528.5 974.8333333333334 500 936.5416666666666C471.5 974.875 426.25 1000 375 1000H31.25V218.75H407.1666666666667V281.25H93.75V937.5H375C426.6666666666667 937.5 468.75 895.4166666666667 468.75 843.75V218.75H531.25V843.75C531.25 895.4166666666667 573.3333333333333 937.5 625 937.5H906.25V281.25H592.9166666666666V218.75H968.75V1000H625z" />
    <glyph glyph-name="level1"
      unicode="&#xE011;"
      horiz-adv-x="1000" d=" M666.6666666666666 500C666.6666666666666 407.9166666666667 592.0833333333334 333.3333333333334 500 333.3333333333334S333.3333333333333 407.9166666666667 333.3333333333333 500S407.9166666666667 666.6666666666667 500 666.6666666666667S666.6666666666666 592.0833333333334 666.6666666666666 500z" />
    <glyph glyph-name="level2"
      unicode="&#xE012;"
      horiz-adv-x="1000" d=" M500 666.6666666666667C407.9166666666667 666.6666666666667 333.3333333333333 592.0833333333334 333.3333333333333 500S407.9166666666667 333.3333333333334 500 333.3333333333334S666.6666666666666 407.9166666666667 666.6666666666666 500S592.0833333333334 666.6666666666667 500 666.6666666666667zM500 395.8333333333334C442.5833333333333 395.8333333333334 395.8333333333333 442.5833333333334 395.8333333333333 500C395.8333333333333 557.5 442.5833333333333 604.1666666666667 500 604.1666666666667S604.1666666666666 557.5 604.1666666666666 500C604.1666666666666 442.5833333333334 557.4166666666666 395.8333333333334 500 395.8333333333334z" />
    <glyph glyph-name="level3"
      unicode="&#xE013;"
      horiz-adv-x="1000" d=" M583.3333333333333 500C583.3333333333333 453.9583333333334 546.0416666666666 416.6666666666668 500 416.6666666666668S416.6666666666667 453.9583333333334 416.6666666666667 500S453.9583333333333 583.3333333333334 500 583.3333333333334S583.3333333333333 546.0416666666667 583.3333333333333 500z" />
    <glyph glyph-name="membranes"
      unicode="&#xE014;"
      horiz-adv-x="1000" d=" M991.4999999999998 663.75L500 928.3333333333334L8.5 663.75L500 399L991.4999999999998 663.75zM500 857.3333333333334L859.6666666666665 663.6666666666667L500 470L140.3333333333333 663.75L500 857.3333333333334zM944.5833333333334 528L972.0833333333334 471.8750000000001L500 240.25L27.9166666666667 471.9166666666667L55.4166666666667 528.0833333333335L500 309.8750000000001L944.5833333333334 528.0416666666667zM944.5833333333334 360.0833333333334L972.0833333333334 304L500 72.2916666666667L27.9166666666667 304.0416666666668L55.4166666666667 360.1250000000001L500 141.9583333333334L944.5833333333334 360.1250000000001z" />
    <glyph glyph-name="menu-close"
      unicode="&#xE015;"
      horiz-adv-x="1000" d=" M617.8333333333333 500L912.4166666666666 205.4166666666668L794.6249999999999 87.5000000000001L500 382.2083333333334L205.4166666666667 87.6250000000001L87.5 205.4166666666668L382.2083333333333 500L87.625 794.5833333333334L205.3333333333333 912.5L500 617.8333333333333L794.5833333333333 912.5L912.4999999999998 794.6666666666667L617.7916666666666 500z" />
    <glyph glyph-name="menu-current"
      unicode="&#xE016;"
      horiz-adv-x="1000" d=" M500 916.6666666666666C729.7499999999999 916.6666666666666 916.6666666666666 729.75 916.6666666666666 500S729.7499999999999 83.3333333333334 500 83.3333333333334S83.3333333333333 270.2500000000001 83.3333333333333 500S270.25 916.6666666666666 500 916.6666666666666M500 1000C223.875 1000 0 776.125 0 500S223.875 0 500 0S1000 223.8750000000001 1000 500S776.1249999999999 1000 500 1000z" />
    <glyph glyph-name="menu-loading"
      unicode="&#xE017;"
      horiz-adv-x="1000" d=" M500 0C224.2916666666667 0 0 224.2916666666666 0 500S224.2916666666667 1000 500 1000C523.0416666666666 1000 541.6666666666666 981.375 541.6666666666666 958.3333333333334S523.0416666666666 916.6666666666666 500 916.6666666666666C270.25 916.6666666666666 83.3333333333333 729.75 83.3333333333333 500S270.25 83.3333333333334 500 83.3333333333334S916.6666666666666 270.2500000000001 916.6666666666666 500C916.6666666666666 611.25 873.3333333333334 715.9166666666667 794.5833333333333 794.5833333333334C778.3333333333333 810.9166666666667 778.3333333333333 837.25 794.5833333333333 853.5416666666667S837.25 869.7916666666667 853.5416666666666 853.5416666666667C947.9999999999998 759.0833333333334 1000 633.5416666666667 1000 500C1000 224.2916666666666 775.7083333333334 0 500 0z" />
    <glyph glyph-name="menu"
      unicode="&#xE018;"
      horiz-adv-x="1000" d=" M1000 833.3333333333334H0V1000H1000V833.3333333333334zM1000 166.6666666666668H0V0H1000V166.6666666666668zM1000 583.3333333333334H0V416.6666666666668H1000V583.3333333333334z" />
    <glyph glyph-name="minus"
      unicode="&#xE019;"
      horiz-adv-x="1000" d=" M625 520.8333333333334V479.1666666666667H375V520.8333333333334H625zM833.3333333333333 500C833.3333333333333 316.25 683.75 166.6666666666668 500 166.6666666666668S166.6666666666667 316.25 166.6666666666667 500S316.25 833.3333333333334 500 833.3333333333334S833.3333333333333 683.75 833.3333333333333 500zM791.6666666666666 500C791.6666666666666 660.8333333333333 660.8333333333333 791.6666666666667 500 791.6666666666667S208.3333333333333 660.8333333333333 208.3333333333333 500S339.1666666666667 208.3333333333334 500 208.3333333333334S791.6666666666666 339.1666666666668 791.6666666666666 500z" />
    <glyph glyph-name="news"
      unicode="&#xE01A;"
      horiz-adv-x="1000" d=" M138.75 10.4166666666667C105.9166666666667 10.4166666666667 73.0416666666667 23 48 48.0000000000001C-2.0833333333333 98.0000000000001 -2.0833333333333 179.5416666666668 48 229.5833333333335S179.5833333333334 279.5833333333334 229.5833333333333 229.5833333333335C279.6666666666667 179.5833333333335 279.6666666666667 98.0416666666667 229.5833333333333 48.0000000000001C204.5833333333333 23 171.6666666666667 10.5000000000001 138.75 10.5000000000001zM138.75 204.7083333333334C121.9583333333333 204.7083333333334 105 198.2916666666668 92.2083333333333 185.4166666666666C66.5 159.7083333333334 66.5 117.9166666666666 92.2083333333333 92.2083333333334C117.9583333333333 66.4583333333335 159.7083333333334 66.5416666666667 185.4166666666667 92.2083333333334C211.125 117.9166666666668 211.125 159.7083333333335 185.4166666666667 185.4166666666669C172.5833333333334 198.3333333333335 155.6666666666667 204.7083333333335 138.75 204.7083333333335zM152.5 526.7916666666667V464.2916666666667C312 464.2083333333334 441.7916666666667 334.4166666666668 441.7916666666667 174.9166666666668H504.2916666666666C504.2916666666666 368.9166666666667 346.4583333333333 526.7083333333334 152.4583333333333 526.75zM754.75 219.7083333333334C754.6666666666667 514.7083333333334 514.625 754.7083333333333 219.75 754.7083333333333V692.2083333333333C480.1666666666667 692.2083333333333 692.1666666666667 480.25 692.25 219.7083333333334H754.75zM989.5833333333331 271.375C989.4583333333331 667.375 667.2916666666666 989.5833333333334 271.375 989.5833333333334V927.0833333333334C632.8333333333334 927.0833333333334 926.9583333333331 632.9166666666667 927.0833333333331 271.375H989.5833333333331z" />
    <glyph glyph-name="objects"
      unicode="&#xE01B;"
      horiz-adv-x="1000" d=" M597.1666666666666 700.2083333333333C597.1666666666666 753.625 553.7083333333334 797.0416666666666 500.3333333333333 797.0416666666666S403.5 753.5416666666667 403.5 700.1666666666667C403.5 646.8333333333334 446.9583333333333 603.3333333333334 500.3333333333333 603.3333333333334S597.1666666666666 646.7916666666667 597.1666666666666 700.2083333333334zM466 700.2083333333333C466 719.1666666666667 481.4166666666666 734.5416666666667 500.3333333333333 734.5416666666667S534.6666666666666 719.125 534.6666666666666 700.1666666666667C534.6666666666666 681.25 519.25 665.8333333333333 500.3333333333333 665.8333333333333S466 681.25 466 700.2083333333333zM472.875 162.7083333333335L500.2083333333333 112.9583333333335L527.5833333333334 162.7500000000001C542.4583333333333 189.8333333333334 565.5 225.8333333333335 592.25 267.4166666666669C676.9166666666667 399.5000000000001 792.9166666666666 580.4583333333335 792.9166666666666 706.4583333333335C792.9166666666666 867.9583333333335 661.5833333333333 999.3750000000002 500 999.3750000000002C338.5416666666667 999.3750000000002 207.1666666666667 868.0000000000002 207.1666666666667 706.4583333333335C207.1666666666667 580.4583333333335 323.4166666666667 399.3750000000003 408.4166666666667 267.0833333333335C435 225.5000000000001 457.9999999999999 189.5833333333336 472.875 162.7083333333336zM500 936.875C627.0833333333334 936.875 730.4166666666666 833.5416666666667 730.4166666666666 706.4583333333334C730.4166666666666 598.75 620.2083333333334 426.7083333333334 539.6666666666667 301.125C525.2916666666666 278.7083333333334 511.9583333333334 257.9166666666668 500.2500000000001 239.0416666666668C488.5833333333334 257.7916666666668 475.2500000000001 278.5000000000001 460.9583333333334 300.7916666666668C384.7916666666668 419.4166666666668 269.7083333333335 598.7083333333335 269.7083333333335 706.3333333333335C269.7083333333335 833.4166666666667 373.0416666666668 936.7500000000002 500.0416666666667 936.7500000000002zM1000 62.5V0H0V62.5H1000z" />
    <glyph glyph-name="packaging"
      unicode="&#xE01C;"
      horiz-adv-x="1000" d=" M813.75 882.3333333333334C763.2083333333333 882.3333333333334 718.9583333333334 871.625 686.0833333333334 854C685.125 915 605.5416666666666 960.8333333333334 500 960.8333333333334S314.875 915 313.9166666666667 854C281 871.625 236.8333333333333 882.3333333333334 186.2916666666667 882.3333333333334C80.125 882.3333333333334 0 836 0 774.5V303.9166666666668C0 242.4583333333334 80.0833333333333 196.0833333333334 186.25 196.0833333333334C236.6666666666667 196.0833333333334 280.8333333333333 206.7916666666668 313.75 224.3333333333334V147.0416666666668C313.75 85.5416666666667 393.8333333333333 39.1250000000001 500 39.1250000000001S686.3333333333334 85.5416666666667 686.3333333333334 147.0416666666668V224.2916666666666C719.25 206.7916666666666 763.4166666666667 196.0416666666666 813.8333333333333 196.0416666666666C919.9999999999998 196.0416666666666 1000.0833333333331 242.4166666666667 1000.0833333333331 303.875V774.5C1000 836 919.9166666666666 882.3333333333334 813.75 882.3333333333334zM813.75 823.5833333333334C890.3333333333334 823.5833333333334 941.1666666666666 794 941.1666666666666 774.5416666666667S890.3333333333334 725.5 813.6666666666667 725.5C737.0833333333334 725.5 686.2500000000001 755 686.2500000000001 774.5S737.0833333333334 823.4583333333334 813.75 823.4583333333334zM372.5 773.3333333333334C386.6666666666667 765.8333333333334 402.9166666666667 759.5833333333333 420.8333333333333 754.875C402.9166666666667 750.2083333333334 386.6666666666667 743.9583333333334 372.5 736.4166666666667V773.3333333333334zM627.4999999999999 736.4583333333333C613.3333333333333 743.9583333333333 597.0833333333333 750.2083333333334 579.1666666666666 754.9166666666666C597.0833333333333 759.5833333333333 613.3333333333333 765.8333333333333 627.4999999999999 773.375V736.5zM500 705.8333333333334C576.6666666666666 705.8333333333334 627.5 676.375 627.5 656.875C627.5 637.375 576.6666666666666 607.875 500 607.875S372.5 637.2916666666667 372.5 656.8333333333334C372.5 676.3333333333334 423.3333333333333 705.8333333333335 500 705.8333333333335zM500 901.9583333333334C576.6666666666666 901.9583333333334 627.5 872.4583333333334 627.5 852.9583333333334S576.6666666666666 803.9583333333334 500 803.9583333333334S372.5 833.4166666666666 372.5 852.9166666666667S423.3333333333333 902 500 902zM186.25 823.5416666666666C262.9166666666667 823.5416666666666 313.75 794.0416666666666 313.75 774.5416666666666S262.9166666666667 725.4166666666667 186.25 725.4166666666667S58.875 755 58.875 774.5S109.7083333333333 823.5416666666667 186.375 823.5416666666667zM186.25 254.9166666666667C109.6666666666666 254.9166666666667 58.8333333333333 284.4166666666667 58.8333333333333 303.9166666666667V694.9166666666667C91.75 677.4166666666667 135.8333333333333 666.6666666666667 186.3333333333333 666.6666666666667S280.9166666666667 677.375 313.75 694.9166666666667V303.9166666666668C313.75 284.3333333333335 262.9166666666667 254.9166666666668 186.25 254.9166666666668zM500 98.0416666666667C423.3333333333333 98.0416666666667 372.5 127.5416666666668 372.5 147.0416666666668V577.25C405.4166666666667 559.6666666666666 449.5833333333333 548.9166666666667 500 548.9166666666667S594.5833333333333 559.6666666666666 627.5 577.25V147C627.5 127.4166666666668 576.6666666666666 97.9583333333334 500 97.9583333333334zM813.75 254.9166666666668C737.0833333333334 254.9166666666668 686.2500000000001 284.4166666666668 686.2500000000001 303.9166666666668V694.9166666666667C719.1666666666667 677.4166666666667 763.3333333333335 666.6666666666667 813.75 666.6666666666667S908.3333333333331 677.375 941.1666666666666 694.9166666666667V303.9166666666668C941.1666666666666 284.3333333333335 890.3333333333334 254.9166666666668 813.6666666666667 254.9166666666668z" />
    <glyph glyph-name="pdf"
      unicode="&#xE01D;"
      horiz-adv-x="1000" d=" M916.6666666666666 750H83.3333333333333C37.2916666666667 750 0 712.7083333333334 0 666.6666666666667V333.3333333333334C0 287.2916666666668 37.2916666666667 250 83.3333333333333 250H916.6666666666666C962.7083333333331 250 1000 287.2916666666668 1000 333.3333333333334V666.6666666666667C1000 712.7083333333334 962.7083333333331 750 916.6666666666666 750zM958.3333333333331 333.3333333333334C958.3333333333331 310.4166666666667 939.5833333333331 291.6666666666668 916.6666666666666 291.6666666666668H83.3333333333333C60.4166666666667 291.6666666666668 41.6666666666667 310.4166666666667 41.6666666666667 333.3333333333334V666.6666666666667C41.6666666666667 689.5833333333334 60.4166666666667 708.3333333333334 83.3333333333333 708.3333333333334H916.6666666666666C939.5833333333331 708.3333333333334 958.3333333333331 689.5833333333334 958.3333333333331 666.6666666666667V333.3333333333334z M301.6666666666667 603.3333333333334H225.8333333333333V396.6666666666667H275.7083333333333V474.6666666666666H300.5416666666667C343.7083333333333 474.6666666666666 382.5416666666667 491.875 382.5416666666667 539.75C382.5416666666667 586.9583333333334 346.9583333333334 603.3333333333333 301.7083333333334 603.3333333333333zM296.6666666666667 514.2916666666667H275.7083333333333V563.0416666666667H297.5833333333333C315.375 563.0416666666667 332.5833333333333 559.2916666666667 332.5833333333333 539.4166666666667C332.5833333333333 519.8333333333333 315.375 514.2916666666667 296.75 514.2916666666667zM487.2083333333333 603.3333333333334H412.5V396.6666666666667H489.5833333333333C546.4166666666666 396.6666666666667 605.4166666666666 427.9166666666667 605.4166666666666 500.6250000000001C605.4166666666666 578.7916666666667 545.8333333333333 603.3333333333334 487.2083333333333 603.3333333333334zM484.8333333333333 439.8333333333334H461.2083333333333V560.6666666666667H485.9999999999999C520.4166666666666 560.6666666666667 553.4166666666666 547.0000000000001 553.4166666666666 500.5833333333334C553.4166666666666 454.4583333333335 520.4166666666666 439.8333333333334 484.7916666666666 439.8333333333334zM638.2083333333333 396.6666666666667H687.5V476.9583333333334H767.5V518.0833333333333H687.5V560.7083333333333H774.1666666666665V603.3333333333334H638.2083333333333z" />
    <glyph glyph-name="plus"
      unicode="&#xE01E;"
      horiz-adv-x="1000" d=" M520.8333333333333 520.8333333333334H625V479.1666666666667H520.8333333333333V375H479.1666666666666V479.1666666666667H375V520.8333333333334H479.1666666666666V625H520.8333333333333V520.8333333333334zM833.3333333333333 500C833.3333333333333 316.25 683.75 166.6666666666668 500 166.6666666666668S166.6666666666667 316.25 166.6666666666667 500S316.25 833.3333333333334 500 833.3333333333334S833.3333333333333 683.75 833.3333333333333 500zM791.6666666666666 500C791.6666666666666 660.8333333333333 660.8333333333333 791.6666666666667 500 791.6666666666667S208.3333333333333 660.8333333333333 208.3333333333333 500S339.1666666666667 208.3333333333334 500 208.3333333333334S791.6666666666666 339.1666666666668 791.6666666666666 500z" />
    <glyph glyph-name="ppt"
      unicode="&#xE01F;"
      horiz-adv-x="1000" d=" M916.6666666666666 750H83.3333333333333C37.2916666666667 750 0 712.7083333333334 0 666.6666666666667V333.3333333333334C0 287.2916666666668 37.2916666666667 250 83.3333333333333 250H916.6666666666666C962.7083333333331 250 1000 287.2916666666668 1000 333.3333333333334V666.6666666666667C1000 712.7083333333334 962.7083333333331 750 916.6666666666666 750zM958.3333333333331 333.3333333333334C958.3333333333331 310.4166666666667 939.5833333333331 291.6666666666668 916.6666666666666 291.6666666666668H83.3333333333333C60.4166666666667 291.6666666666668 41.6666666666667 310.4166666666667 41.6666666666667 333.3333333333334V666.6666666666667C41.6666666666667 689.5833333333334 60.4166666666667 708.3333333333334 83.3333333333333 708.3333333333334H916.6666666666666C939.5833333333331 708.3333333333334 958.3333333333331 689.5833333333334 958.3333333333331 666.6666666666667V333.3333333333334z M316.6666666666667 603.3333333333334H240.8333333333334V396.6666666666667H290.7083333333333V474.6666666666666H315.5416666666667C358.7083333333333 474.6666666666666 397.5416666666667 491.875 397.5416666666667 539.75C397.5416666666667 586.9583333333334 361.9583333333334 603.3333333333333 316.7083333333334 603.3333333333333zM311.6666666666667 514.2916666666667H290.7083333333333V563.0416666666667H312.5833333333333C330.375 563.0416666666667 347.5833333333333 559.2916666666667 347.5833333333333 539.4166666666667C347.5833333333333 519.8333333333333 330.375 514.2916666666667 311.75 514.2916666666667zM503.3333333333333 603.3333333333334H427.5V396.6666666666667H477.4166666666666V474.6666666666666H502.25C545.4166666666666 474.6666666666666 584.25 491.875 584.25 539.75C584.25 586.9583333333334 548.625 603.3333333333333 503.4166666666667 603.3333333333333zM498.3333333333333 514.2916666666667H477.375V563.0416666666667H499.25C517.0416666666666 563.0416666666667 534.25 559.2916666666667 534.25 539.4166666666667C534.25 519.8333333333333 517.0833333333333 514.2916666666667 498.4166666666667 514.2916666666667zM592.5 560.7083333333334H650.9166666666666V396.6666666666668H700.8333333333333V560.7083333333334H759.1666666666666V603.3333333333334H592.4999999999999z" />
    <glyph glyph-name="promotionals"
      unicode="&#xE020;"
      horiz-adv-x="1000" d=" M328.75 836.5H673.0416666666666V774H328.75V836.5zM328.75 651.5833333333334H673.0416666666666V714.0833333333334H328.75V651.5833333333334zM135.4166666666667 987.75V222H274.7083333333333V284.5H197.9166666666667V925.25H802.0833333333333V284.5H704.4166666666666V222H864.5833333333333V987.75H135.4166666666667zM615.5416666666666 508.8333333333334C644.0416666666666 474.9166666666666 655.9583333333333 430.0833333333334 648.125 385.9166666666668C642.5416666666666 354.2500000000001 626.2499999999999 325.6250000000001 603.25 304L602.5416666666666 12.3333333333334L501.0833333333333 75.5L399.5 12.2499999999999V303.2083333333333C369 331.4583333333333 351.6666666666667 371 351.6666666666667 412.7916666666665C351.6666666666667 495.1666666666666 418.75 562.1666666666665 501.0416666666666 562.1666666666665C545.3749999999999 562.1666666666665 587.0833333333333 542.75 615.5416666666666 508.8333333333333zM540.7083333333334 268.625C536.5416666666666 267.5 532.25 266.5416666666667 527.9166666666666 265.7916666666667C505.6666666666666 261.7083333333334 483.1666666666666 262.8749999999999 462.0833333333333 268.5833333333333V124.8333333333334L501.1249999999999 149.1249999999999L540.2916666666666 124.6666666666666L540.7083333333333 268.5833333333333zM567.7083333333333 468.625C551.125 488.4166666666667 526.875 499.75 501.0416666666666 499.75C453.2083333333333 499.75 414.2083333333333 460.75 414.1666666666667 412.875C414.1666666666667 387.0416666666668 425.4166666666667 362.875 445.2500000000001 346.2083333333334C450.25 342.0416666666668 455.5416666666667 338.4583333333334 461.1666666666667 335.5416666666667L462 335.125C478.6666666666667 326.6666666666668 497.7083333333333 323.9583333333333 517.0833333333333 327.2083333333333C525.4166666666666 328.7499999999999 533.4583333333334 331.5416666666667 540.8333333333334 335.3333333333333V336.4583333333333H543.0416666666667C565.4166666666667 348.8749999999999 582.125 371.0416666666667 586.625 396.7083333333333C591.2083333333333 423.0416666666665 584.4583333333334 448.5416666666667 567.6666666666666 468.5833333333333z" />
    <glyph glyph-name="qos"
      unicode="&#xE021;"
      horiz-adv-x="1000" d=" M108.5416666666667 778.1666666666667C111.6666666666667 778 114.7083333333333 777.875 117.7083333333333 777.875C138.75 777.875 157.4583333333333 782.75 173.625 790.875L353.375 617.5416666666667L396.7916666666667 662.5L217.7916666666667 835.125C218.0416666666667 835.6666666666667 218.5 836.0416666666667 218.75 836.625C234.5833333333333 871.875 226.75 913.9166666666666 199.4166666666666 941.2083333333334L155.25 985.4166666666666L22.6666666666667 852.9166666666667L96.6666666666667 778.875L108.5416666666667 778.1666666666666zM155.2083333333333 897.0833333333334C164.375 887.9166666666666 166.9583333333333 873.9166666666667 161.7083333333334 862.2083333333334C156 849.4166666666667 142.2916666666667 841.7916666666667 123.375 840.5416666666667L111.0833333333333 852.875L155.25 897.0416666666667zM821.75 149.1666666666668L650.9166666666667 320L695.1666666666666 364.1666666666668L865.9999999999999 193.4166666666668L821.7499999999999 149.2500000000001zM986.0833333333331 106.5416666666669C957.9583333333331 44.7083333333334 894.6666666666666 9.0416666666669 814.625 9.0416666666669C808.4583333333334 9.0416666666669 802.125 9.2916666666669 795.6666666666667 9.7500000000001L784.0000000000001 10.5833333333335L543.5833333333334 250.9166666666668L587.7500000000001 295.0833333333334L811.2916666666667 71.6666666666666C869.625 71.5 911.0833333333334 92.5 929.2083333333334 132.5C945.4583333333334 168 937.6666666666666 210.4166666666668 910.0416666666666 238L720.3333333333333 427.7083333333334L764.4999999999999 471.8750000000001L954.2916666666666 282.2083333333335C1000.2083333333331 236.1250000000001 1013.0416666666666 165.5416666666669 986.1249999999998 106.5416666666669zM543.75 644.7083333333334C506.4166666666666 727.2083333333334 524.375 825.5416666666667 588.4166666666666 889.5L645.5 946.5833333333334L689.6666666666666 902.4166666666669L632.5833333333333 845.3333333333334C586.8749999999999 799.5 574.0416666666666 729.2916666666667 600.6249999999999 670.4166666666667C631.2916666666666 602.625 703.5416666666665 565.8333333333334 798.2916666666666 569.1666666666667L910.5833333333331 681.4583333333334L888.4999999999999 703.5416666666667L826.2499999999999 641.375L814.5833333333331 640.625C744.4166666666665 636.25 688.3333333333331 665.0833333333333 664.2499999999998 718.2916666666667C642.8749999999998 765.375 653.1249999999999 821.625 689.6666666666665 858.2916666666666L711.7499999999999 880.375L645.4999999999999 946.625L689.6666666666665 990.7916666666666L800.1666666666665 880.375L733.9166666666665 814.125C715.5833333333331 795.7916666666666 710.4166666666665 767.625 721.1249999999999 744.125C733.0833333333331 717.6666666666667 761.2083333333333 702.875 799.1666666666666 702.625L888.5416666666666 791.9166666666666L998.9583333333331 681.5L954.7916666666666 637.25L825.5416666666665 508.0833333333334L813.7916666666665 507.2500000000001C805.0416666666665 506.7500000000001 796.4583333333333 506.4166666666667 787.9583333333331 506.4166666666667C673.6249999999999 506.4166666666667 583.3749999999999 557.0000000000001 543.7916666666665 644.6666666666667zM134.1666666666667 125.9583333333335V188.4583333333335H196.6666666666667V125.9583333333335H134.1666666666667zM587.5 474.8750000000002L543.5 430.4583333333335L419.5000000000001 553.0416666666667L463.4583333333334 597.4583333333335L587.4583333333333 474.9583333333336zM462.5000000000001 409.4583333333335L513.0416666666667 372.7083333333335L275 45.75C245.4166666666667 16.2500000000001 206.25 0 164.4166666666667 0C122.75 0 83.4583333333333 16.2500000000001 53.9166666666667 45.8333333333335C24.4166666666667 75.2916666666669 8.0833333333333 114.5000000000001 8.0833333333333 156.25C8.0833333333333 197.9166666666668 24.4166666666667 237.2083333333335 53.9166666666667 266.6666666666667L57.6666666666667 269.875L381 504.7916666666667L417.6666666666667 454.2083333333334L96.5416666666667 220.8750000000001C79.875 203.375 70.7083333333334 180.4583333333335 70.7083333333334 156.2916666666668C70.7083333333334 131.1666666666668 80.4166666666667 107.6666666666667 98.125 89.9583333333335C133.125 55.0416666666667 193.5416666666667 54.3750000000002 229.0833333333334 88.3750000000001L462.4166666666667 409.5416666666669z" />
    <glyph glyph-name="rejection-letter"
      unicode="&#xE022;"
      horiz-adv-x="1000" d=" M764.4166666666666 528.0416666666667C634.5 528.0416666666667 528.7916666666666 422.375 528.7916666666666 292.4583333333333C528.7916666666666 162.4583333333333 634.4999999999999 56.7916666666667 764.4583333333331 56.7916666666667C894.3333333333333 56.8333333333334 1000 162.5 1000 292.5C1000 422.375 894.3333333333333 528.0416666666666 764.4166666666666 528.0416666666666zM764.4166666666666 119.0416666666668C668.7916666666667 119.0416666666668 591 196.8333333333334 591 292.4583333333333S668.7916666666667 465.7916666666666 764.4166666666666 465.7916666666666S937.75 388.0416666666667 937.75 292.4583333333333S860.0416666666667 119 764.4166666666666 119zM62.2083333333333 845.8333333333334L447.2083333333333 527.9166666666667L832.2083333333333 846V571.4166666666667H894.4166666666665V943.0833333333334H0V254.7500000000001H452.5833333333333V316.9583333333334H62.1666666666667V845.8333333333334zM776.7916666666665 880.9583333333334L447.2083333333332 608.6666666666667L117.4166666666665 880.9583333333334H776.8333333333333zM672.7499999999999 323.5416666666668H856.0833333333333V261.3333333333335H672.75V323.5416666666668z" />
    <glyph glyph-name="search"
      unicode="&#xE023;"
      horiz-adv-x="1000" d=" M812.5 593.75C812.5 817.75 630.2499999999999 1000 406.25 1000S0 817.75 0 593.75S182.25 187.5 406.25 187.5S812.5 369.75 812.5 593.75zM406.25 250C216.6666666666667 250 62.5 404.1666666666667 62.5 593.75S216.6666666666667 937.5 406.25 937.5S750 783.3333333333334 750 593.75S595.8333333333334 250 406.25 250zM1000 93.75C1000 68.6666666666667 990.2916666666666 45.125 972.5833333333331 27.4166666666667S931.3333333333331 0 906.3333333333331 0C881.1666666666666 0 857.6666666666666 9.7083333333334 839.9583333333333 27.4166666666667L665.6666666666666 196.3333333333335L709.2083333333334 241.1666666666669L883.7916666666667 71.9166666666669C896.2083333333333 59.5000000000002 916.4583333333334 59.7500000000001 928.2916666666669 71.5833333333335C934.2083333333334 77.5000000000002 937.4583333333334 85.3333333333335 937.4583333333334 93.6666666666669S934.2083333333334 109.916666666667 928.2916666666669 115.7500000000004L758.7083333333334 290.666666666667L803.5833333333334 334.2083333333336L972.8333333333334 159.7083333333336C990.2083333333334 142.416666666667 999.9166666666666 118.8750000000002 999.9166666666666 93.791666666667zM273.8333333333333 726.4166666666667C200.75 653.2916666666667 200.75 534.3333333333334 273.8333333333333 461.2916666666667L229.6666666666667 417.125C132.1666666666667 514.5416666666667 132.1666666666667 673.125 229.6666666666667 770.625L273.8333333333334 726.4583333333333z" />
    <glyph glyph-name="select-solution"
      unicode="&#xE024;"
      horiz-adv-x="1000" d=" M159.0833333333333 742.4166666666667H96.5833333333333V1000H159.0833333333333V742.4166666666667zM96.5833333333333 0H159.0833333333333V378.75H96.5833333333333V0zM250 560.625C250 493.2500000000001 195.2083333333334 438.5416666666668 127.8333333333333 438.5416666666668S5.6666666666667 493.2083333333334 5.6666666666667 560.5833333333334S60.4166666666667 682.7916666666667 127.8333333333333 682.7916666666667S250 627.9166666666667 250 560.625zM187.5 560.625C187.5 593.5416666666667 160.75 620.2916666666667 127.8333333333333 620.2916666666667S68.1666666666667 593.5416666666667 68.1666666666667 560.625S94.9166666666667 500.9583333333334 127.8333333333333 500.9583333333334S187.5 527.7083333333333 187.5 560.625zM534.0833333333333 1000H471.5833333333333V500H534.0833333333333V1000zM471.5833333333333 0H534.0833333333333V136.3333333333334H471.5833333333333V0zM625 318.2083333333334C625 250.8333333333334 570.2083333333334 196.0000000000001 502.8333333333333 196.0000000000001S380.6666666666667 250.7916666666668 380.6666666666667 318.2083333333334C380.6666666666667 385.5416666666668 435.4583333333333 440.3750000000001 502.8333333333333 440.3750000000001C570.2083333333333 440.2916666666668 625 385.5000000000001 625 318.1666666666669zM562.5 318.2083333333334C562.5 351.125 535.75 377.8750000000001 502.8333333333333 377.8750000000001S443.1666666666667 351.0416666666668 443.1666666666667 318.1666666666667C443.1666666666667 285.25 469.9166666666666 258.4583333333334 502.8333333333333 258.4583333333334S562.5 285.25 562.5 318.1666666666667zM909.0833333333334 1000H846.5833333333334V863.625H909.0833333333334V1000zM846.5833333333334 0H909.0833333333334V500H846.5833333333334V0zM1000 681.8333333333334C1000 614.4583333333334 945.2083333333331 559.6666666666667 877.8333333333334 559.6666666666667S755.6666666666667 614.4583333333334 755.6666666666667 681.8333333333334S810.4583333333335 804 877.8333333333334 804S1000 749.1666666666667 1000 681.8333333333334zM937.5 681.8333333333334C937.5 714.75 910.7083333333331 741.5 877.8333333333334 741.5S818.1666666666667 714.75 818.1666666666667 681.8333333333333S844.9583333333335 622.1666666666666 877.8333333333334 622.1666666666666S937.5 648.9166666666667 937.5 681.8333333333334z" />
    <glyph glyph-name="solutions"
      unicode="&#xE025;"
      horiz-adv-x="1000" d=" M352.9166666666667 499.6666666666667C352.9166666666667 413.5416666666668 423.0416666666667 343.4166666666668 509.1666666666667 343.4166666666668C595.25 343.4166666666668 665.3333333333333 413.5416666666668 665.3333333333333 499.6666666666667S595.25 655.8333333333334 509.1666666666667 655.8333333333334C423 655.8333333333334 352.9166666666667 585.8333333333334 352.9166666666667 499.6666666666667zM509.1666666666667 593.3333333333335C560.8333333333334 593.3333333333335 602.8333333333333 551.3333333333335 602.8333333333333 499.6666666666667S560.75 405.9166666666668 509.1666666666666 405.9166666666668C457.4999999999999 405.9166666666668 415.4166666666666 448.0000000000001 415.4166666666666 499.6666666666667S457.4999999999999 593.3333333333335 509.1666666666666 593.3333333333335zM871.7916666666667 445.2500000000001L982.7083333333331 333.6666666666669L882.7916666666666 162.0000000000001L731.125 204.0000000000001C708.2083333333333 186.0833333333334 683.4583333333334 171.0833333333335 657.375 159.0000000000001L614.7916666666666 -0.4166666666665L416.1666666666667 0.3333333333335L377.7083333333333 145.9583333333335C339.625 159.2083333333336 304.375 178.2500000000001 272.5416666666667 202.7500000000002L132.2083333333333 165.5833333333335L33.4583333333333 337.9583333333336L132.2083333333333 435.0416666666669C128.25 457.541666666667 126.375 479.6250000000002 126.375 501.1250000000002C126.5 518.6250000000002 127.875 536.3750000000002 130.5416666666666 554.1250000000002L19.5833333333333 665.75L119.5833333333333 837.4166666666666L271.25 795.4166666666667C303.3333333333333 820.4166666666666 338.9166666666667 839.875 377.25 853.25L380.4583333333333 878.6666666666666L442.5416666666667 870.75L434.2083333333334 805.25L414.4166666666667 799.5C371.7083333333334 787.2083333333334 332.7500000000001 766.1666666666667 298.7083333333334 737.1666666666667L286.0833333333334 726.4166666666667L149.4166666666667 764.3333333333334L97.7500000000001 675.75L197.9166666666668 574.9166666666667L194.7083333333334 558.6666666666667C190.9583333333334 539.2916666666667 188.9583333333334 519.8333333333333 188.8750000000001 500.8333333333334C188.7500000000001 478.4583333333333 191.3750000000001 455 196.6250000000001 431.25L200.2916666666668 414.4166666666668L111.5416666666668 327.2083333333335L162.5 238.25L287.5 271.3750000000001L299.9166666666667 260.9583333333335C332.9583333333333 233.1250000000001 370.8333333333333 212.7500000000001 412.5 200.3750000000001L429.3333333333333 195.375L464.3333333333333 62.5833333333334L566.8333333333333 62.1666666666666L604.7499999999999 204.6666666666666L619.125 210.5C649.6666666666666 223.0833333333334 678.0416666666666 240.5 703.4583333333333 262.1666666666667L716.1249999999999 272.9166666666667L852.9166666666665 234.9999999999999L904.5833333333331 323.6666666666667L804.4999999999998 424.2916666666665L807.5833333333331 440.5416666666665C811.3333333333331 460.2499999999999 813.2916666666665 479.8333333333333 813.4166666666665 498.6249999999999C813.4999999999999 512.2083333333333 812.375 526.6666666666665 809.8333333333333 544.125L807.5416666666666 559.7083333333333L921.7916666666666 672L870.8333333333333 760.9166666666666L721.1666666666666 721.3333333333333L708.6666666666666 732.5833333333333C682.0833333333331 756.1666666666666 652.6249999999999 774.8333333333333 620.9583333333333 788L606.6666666666666 793.9166666666666L569.1666666666665 936.5833333333331L411.3749999999999 937L411.5416666666665 999.5L617.3749999999998 998.875L659.4583333333331 839.2083333333333C687.0416666666665 826.2916666666666 713.2083333333331 809.8333333333334 737.2916666666665 790.125L901.3333333333331 833.4583333333333L1000 661.25L873.7499999999999 537.0833333333333C875.2916666666665 523.1666666666667 875.9999999999999 510.5416666666666 875.9583333333333 498.2499999999999C875.875 480.9166666666666 874.4166666666666 463.1666666666666 871.7916666666665 445.25z" />
    <glyph glyph-name="storage"
      unicode="&#xE026;"
      horiz-adv-x="1000" d=" M765.8333333333333 531.25V1000H234.5833333333333V531.25H-0.1666666666667V0H1000.25V531.25H765.8333333333333zM297.0833333333333 937.5H703.3333333333333V531.25H297.0833333333333V937.5zM468.5416666666667 62.5H62.2916666666667V468.75H468.5833333333333V62.5zM937.7083333333334 62.5H531.4583333333334V468.75H937.7083333333334V62.5z" />
    <glyph glyph-name="tn"
      unicode="&#xE027;"
      horiz-adv-x="1000" d=" M249.7916666666667 1000L0 750.2083333333334V0H749.9166666666666L1000 250.0833333333334V1000H249.7916666666667zM941.1666666666666 274.4583333333334L725.5416666666666 58.8333333333334H58.875L364.0833333333333 363.5V604.5833333333334H468.6666666666666V332.6666666666668H531.4166666666666V553.9166666666667L677.8333333333334 332.6666666666668H740.5833333333334V649.75L941.2499999999998 850.4166666666667V274.4583333333334zM677.8333333333334 677.7916666666667V446.2916666666667L531.375 667.375H165.4166666666667V604.5833333333334H301.25L301.1666666666667 385.0833333333334L58.75 142.5833333333334V725.8333333333334L274.1666666666667 941.1666666666666H941.1666666666666L677.8333333333334 677.8333333333334z" />
    <glyph glyph-name="use"
      unicode="&#xE028;"
      horiz-adv-x="1000" d=" M547.7916666666666 133L577.25 103.5416666666667L500 26.25L422.7916666666667 103.5416666666667L452.25 133L479.2083333333334 106.0833333333334V503.75H520.875V106.0833333333334L547.8333333333334 133zM27.9166666666667 517.2916666666667L416.6666666666667 326.4583333333334V396.1250000000001L55.4166666666667 573.3333333333334L27.9166666666667 517.2916666666667zM27.9166666666667 349.375L416.6666666666667 158.5416666666668V228.1250000000001L55.4166666666667 405.4166666666668L27.9166666666667 349.375zM500 902.7083333333334L859.6666666666665 709.0416666666667L583.3333333333333 560.2916666666667V489.25L991.4999999999998 709.0416666666667L500 973.75L8.5 709L416.6666666666667 489.2500000000001V560.2500000000001L140.3333333333334 709.0000000000001L500 902.7916666666666zM583.3333333333333 228.2083333333334V158.6250000000001L972.0833333333331 349.4583333333335L944.5833333333331 405.5000000000001L583.3333333333333 228.2083333333334zM583.3333333333333 396.1250000000001V326.4583333333334L972.0833333333331 517.2916666666667L944.5833333333331 573.375L583.3333333333333 396.1666666666667z" />
    <glyph glyph-name="vk"
      unicode="&#xE029;"
      horiz-adv-x="1000" d=" M815.0833333333334 568.125C739.4166666666667 467.2916666666667 731 476.7083333333334 793.8333333333333 418.4166666666668C853.8333333333334 362.7083333333334 866.3333333333333 335.625 868.2916666666665 332.25C893.0833333333331 291.0000000000001 840.7083333333333 287.8333333333334 840.7083333333333 287.8333333333334L740.5416666666666 286.4166666666669S719 282.1666666666668 690.7083333333333 301.6250000000001C653.2083333333333 327.2916666666668 617.9166666666665 394.1250000000001 590.3749999999999 385.3750000000001C562.4583333333333 376.5416666666668 563.2916666666665 316.4166666666668 563.2916666666665 316.4166666666668S563.5416666666666 303.5833333333335 557.1666666666665 296.7083333333335C550.2499999999999 289.2083333333335 536.7499999999999 287.7500000000001 536.7499999999999 287.7500000000001H491.8749999999999S392.9583333333332 281.7916666666668 305.8333333333333 372.5000000000001C210.8333333333333 471.5000000000001 127.0833333333333 667.7916666666667 127.0833333333333 667.7916666666667S122.25 680.7083333333333 127.5 686.875C133.4166666666666 693.875 149.5 694.375 149.5 694.375L256.6666666666667 695.0416666666667S266.75 693.375 274 688.0416666666667C279.9583333333333 683.6666666666667 283.2916666666667 675.4583333333334 283.2916666666667 675.4583333333334S300.625 631.7083333333333 323.5833333333333 592.125C368.375 514.7083333333334 389.2083333333333 497.7916666666667 404.4166666666667 506.0833333333334C426.5833333333333 518.1666666666667 419.9166666666667 615.4583333333334 419.9166666666667 615.4583333333334S420.3333333333333 650.75 408.75 666.5C399.7916666666666 678.6666666666667 382.9166666666667 682.25 375.4166666666666 683.25C369.4166666666666 684.0833333333334 379.3333333333332 698.0416666666667 392.1666666666665 704.3333333333334C411.4583333333332 713.7916666666667 445.4999999999999 714.3333333333334 485.7499999999999 713.9166666666667C517.0833333333333 713.5833333333335 526.1666666666665 711.625 538.3749999999999 708.6666666666667C575.2916666666665 699.75 562.7499999999998 665.3333333333334 562.7499999999998 582.6666666666667C562.7499999999998 556.2083333333335 557.9583333333331 519 577.0833333333331 506.6250000000001C585.2499999999998 501.3333333333334 605.3333333333331 505.7916666666668 655.5416666666665 591.0833333333335C679.2916666666665 631.5000000000002 697.2083333333331 679.0000000000001 697.2083333333331 679.0000000000001S701.0833333333331 687.4583333333335 707.2083333333331 691.0833333333335C713.3749999999998 694.8333333333335 721.7916666666665 693.6666666666667 721.7916666666665 693.6666666666667L834.5416666666665 694.3750000000002S868.3749999999999 698.4166666666669 873.8749999999998 683.1250000000002C879.5416666666664 667.0833333333335 861.1249999999998 629.5833333333335 815.0416666666665 568.1250000000002z" />
    <glyph glyph-name="yt"
      unicode="&#xE02A;"
      horiz-adv-x="1000" d=" M759.7083333333333 757.625L514.7083333333334 757.8333333333334L260.2083333333334 757.625C196.4583333333333 757.625 125 715.125 125 652.7916666666667V342.5C125 280.1666666666668 196.5 242.1666666666667 260.2083333333333 242.1666666666667H759.75C823.4166666666666 242.1666666666667 875.0416666666666 280.1666666666665 875.0416666666666 342.4999999999999V652.7916666666667C875.0416666666666 715.125 823.3750000000001 757.625 759.75 757.625zM451.5 380.5416666666667L450.0416666666667 616.7916666666666L614.5416666666666 497.625L451.5416666666666 380.5416666666667z" />
  </font>
</defs>
</svg>
